<svg id="_0179_coding_3" xmlns="http://www.w3.org/2000/svg" viewBox="0 0 500 500" data-imageid="coding-4-89" imageName="Coding 4" class="illustrations_image" style="width: 295px;"><defs><style>.cls-1_coding-4-89{fill:#fff;}.cls-2_coding-4-89{fill:#f4a28c;}.cls-3_coding-4-89{opacity:.46;}.cls-3_coding-4-89,.cls-4_coding-4-89,.cls-5_coding-4-89,.cls-6_coding-4-89,.cls-7_coding-4-89{fill:none;}.cls-8_coding-4-89{fill:#a5a5a5;}.cls-4_coding-4-89{opacity:.58;}.cls-9_coding-4-89{fill:#ce8172;}.cls-10_coding-4-89{fill:#e6e6e6;}.cls-5_coding-4-89{opacity:.73;}.cls-6_coding-4-89{opacity:.08;}.cls-7_coding-4-89{opacity:.31;}.cls-11_coding-4-89{fill:#24285b;}.cls-12_coding-4-89{fill:#000001;}.cls-13_coding-4-89{fill:#ffd200;}.cls-14_coding-4-89{fill:#68e1fd;}</style></defs><g id="code2_coding-4-89"><rect class="cls-13_coding-4-89" x="370.12" y="97.23" width="91.3" height="62.77"/><path class="cls-1_coding-4-89" d="m403.5,140.94c-.46,0-.92-.15-1.31-.46l-13.69-10.82c-.5-.4-.8-1.01-.8-1.65,0-.64.29-1.25.79-1.66l13.69-11.01c.91-.73,2.24-.59,2.97.32.73.91.59,2.24-.32,2.97l-11.62,9.35,11.61,9.18c.92.72,1.07,2.05.35,2.97-.42.53-1.03.8-1.66.8Z"/><path class="cls-1_coding-4-89" d="m428.28,140.94c-.62,0-1.24-.28-1.66-.8-.72-.92-.57-2.24.35-2.97l11.61-9.18-11.62-9.35c-.91-.73-1.05-2.06-.32-2.97.73-.91,2.06-1.05,2.97-.32l13.69,11.01c.5.4.79,1.01.79,1.66,0,.64-.3,1.25-.8,1.65l-13.69,10.82c-.39.31-.85.46-1.31.46Z"/><path class="cls-1_coding-4-89" d="m410.15,140.94c-.29,0-.59-.06-.88-.19-1.06-.49-1.53-1.74-1.04-2.8l9.97-21.83c.49-1.06,1.74-1.53,2.8-1.04,1.06.48,1.53,1.74,1.04,2.8l-9.97,21.83c-.36.78-1.12,1.24-1.92,1.24Z"/></g><g id="code1_coding-4-89"><rect class="cls-11_coding-4-89" x="22.85" y="44.36" width="212.11" height="167.55"/><rect class="cls-14_coding-4-89 targetColor" x="84.84" y="137.44" width="68.14" height="7.62" style="fill: rgb(104, 225, 253);"/><rect class="cls-13_coding-4-89" x="104.38" y="116.21" width="60.91" height="7.62"/><rect class="cls-13_coding-4-89" x="130.34" y="175.25" width="31.78" height="7.62"/><rect class="cls-14_coding-4-89 targetColor" x="104.38" y="155.87" width="81.19" height="7.62" style="fill: rgb(104, 225, 253);"/><rect class="cls-1_coding-4-89" x="59.56" y="155.87" width="30.53" height="7.62"/><rect class="cls-1_coding-4-89" x="89.97" y="175.9" width="30.53" height="7.62"/><rect class="cls-1_coding-4-89" x="40.02" y="137.44" width="30.53" height="7.62"/><circle class="cls-1_coding-4-89" cx="36.74" cy="57.22" r="3.59"/><circle class="cls-14_coding-4-89 targetColor" cx="47.43" cy="57.22" r="3.59" style="fill: rgb(104, 225, 253);"/><circle class="cls-13_coding-4-89" cx="57.5" cy="57.22" r="3.59"/><rect class="cls-1_coding-4-89" x="40.02" y="79.46" width="30.53" height="7.62"/><rect class="cls-1_coding-4-89" x="59.56" y="98.53" width="30.53" height="7.62"/><rect class="cls-13_coding-4-89" x="104.38" y="98.53" width="60.91" height="7.62"/><rect class="cls-1_coding-4-89" x="59.56" y="116.21" width="30.53" height="7.62"/><rect class="cls-14_coding-4-89 targetColor" x="82.76" y="79.46" width="62.9" height="7.62" style="fill: rgb(104, 225, 253);"/><rect class="cls-14_coding-4-89 targetColor" x="158.82" y="79.46" width="44.66" height="7.62" style="fill: rgb(104, 225, 253);"/></g><g id="person_table_coding-4-89"><path class="cls-13_coding-4-89" d="m381.08,215.28s70.51-21.65,80.17,25.11c9.66,46.75-10.1,98.91-10.1,98.91h-114.73l44.66-124.02Z"/><path class="cls-14_coding-4-89 targetColor" d="m287.44,193.53s-37.32-1.73-44.68,35.34c-7.36,37.06,5.19,88.58,5.19,88.58l-56.27,15.13,2.83,6.72h80.29l24.68-57.78-12.03-87.99Z" style="fill: rgb(104, 225, 253);"/><g class="cls-3_coding-4-89"><path class="cls-1_coding-4-89" d="m287.44,193.53s-37.32-1.73-44.68,35.34c-7.36,37.06,5.19,88.58,5.19,88.58l-56.27,15.13,2.83,6.72h80.29l24.68-57.78-12.03-87.99Z"/></g><path class="cls-2_coding-4-89" d="m312.24,144.25s-.54,11.87,1.77,19.65c.94,3.16,4.31,4.98,7.46,4,3.9-1.22,8.83-4.01,9.89-10.33l3.12-10.51s1.73-6.66-5.16-11.2c-6.89-4.54-17.11,1.14-17.08,8.39Z"/><polygon class="cls-2_coding-4-89" points="333.65 152.43 338.07 191.11 316.58 192.02 322 163.51 333.65 152.43"/><path class="cls-11_coding-4-89" d="m315.2,144.62c2.08.02,5.88-.15,10.91-1.29,0,0-3.5,5.32.45,10.86,3.94,5.54,9.87,2.82,9.87,2.82l-.82-15.24c-.1-4.45-2.61-8.5-6.57-10.53-1.62-.83-3.41-1.65-5.19-2.28-4.46-1.58-10.77,1.61-14.83-1.19-1.78-1.23-4.23-.09-4.46,2.06-.5,4.67.63,11.93,7.01,14.21,1.17.42,2.4.56,3.64.58Z"/><path class="cls-2_coding-4-89" d="m325.27,153.89s-.1-4.57,3.35-4.36c3.45.21,3.63,6.82-1.01,7.63l-2.34-3.26Z"/><path class="cls-2_coding-4-89" d="m312.28,151.74l-3.12,4.71c-.77,1.16-.07,2.73,1.31,2.93l4.57.67-2.77-8.31Z"/><g class="cls-7_coding-4-89"><path class="cls-9_coding-4-89" d="m322.29,164.44s4.04.19,7.76-2.31c0,0-.31,7.19-9.62,12.08l1.86-9.77Z"/></g><path class="cls-14_coding-4-89 targetColor" d="m287.44,193.53s83.7-16.04,112.3,0c28.6,16.04-31.39,165.32-31.39,165.32l-88.17-2.79s-77.14-147.18,7.26-162.53Z" style="fill: rgb(104, 225, 253);"/><g class="cls-6_coding-4-89"><path class="cls-12_coding-4-89" d="m362.61,201.14s-30.03,21.89-16.38,62.18c20.35,60.05-81.77,57.06-81.77,57.06l7.82,18.92,117.67-8.86,10.21-40.54-37.56-88.75Z"/></g><rect class="cls-8_coding-4-89" x="30.14" y="349.73" width="447.01" height="105.91"/><rect class="cls-10_coding-4-89" x="30.14" y="339.3" width="447.01" height="19.1"/><path class="cls-2_coding-4-89" d="m311.94,328.7s-38.45-11.14-33.83,10.59h33.83v-10.59Z"/><rect class="cls-10_coding-4-89" x="117.83" y="187.34" width="152.98" height="115.82"/><rect class="cls-10_coding-4-89" x="228.76" y="333.32" width="72.73" height="5.98"/><polygon class="cls-8_coding-4-89" points="180.28 259.59 163.83 339.3 245.22 339.3 245.22 328.7 204.53 326.1 201.06 259.59 180.28 259.59"/><path class="cls-14_coding-4-89 targetColor" d="m361.44,205.89c1.56-12.54,13.78-20.96,26.04-17.92,16.31,4.05,36.78,16.87,39.84,55.31,5.19,65.23-13.28,96.02-13.28,96.02h-102.11v-12.9l70.94-8.66s-27.04-66.91-21.44-111.85Z" style="fill: rgb(104, 225, 253);"/><g class="cls-3_coding-4-89"><path class="cls-1_coding-4-89" d="m361.44,205.89c1.56-12.54,13.78-20.96,26.04-17.92,16.31,4.05,36.78,16.87,39.84,55.31,5.19,65.23-13.28,96.02-13.28,96.02h-102.11v-12.9l70.94-8.66s-27.04-66.91-21.44-111.85Z"/></g><g class="cls-4_coding-4-89"><path class="cls-14_coding-4-89 targetColor" d="m69.18,322.18s-14.44-3.94-17.58-17.38c0,0,22.37-4.52,23.01,18.57l-5.43-1.19Z" style="fill: rgb(104, 225, 253);"/></g><g class="cls-5_coding-4-89"><path class="cls-14_coding-4-89 targetColor" d="m70.95,320.75s-10.09-15.95-1.21-30.86c0,0,17.01,10.8,9.45,30.89l-8.24-.03Z" style="fill: rgb(104, 225, 253);"/></g><path class="cls-14_coding-4-89 targetColor" d="m73.55,320.76s5.33-16.84,21.44-20.03c0,0,3.02,10.94-10.43,20.08l-11.01-.05Z" style="fill: rgb(104, 225, 253);"/><polygon class="cls-11_coding-4-89" points="63.08 320.38 66.01 340.41 84.44 340.48 87.16 320.48 63.08 320.38"/></g></svg>